<?xml version="1.0" encoding="UTF-8" standalone="no"?><svg xmlns="http://www.w3.org/2000/svg" xmlns:xlink="http://www.w3.org/1999/xlink" contentScriptType="application/ecmascript" contentStyleType="text/css" height="531px" preserveAspectRatio="none" style="width:553px;height:531px;" version="1.1" viewBox="0 0 553 531" width="553px" zoomAndPan="magnify"><defs/><g><ellipse cx="39.8492" cy="21.242" fill="#F8F8F8" rx="17.8492" ry="13.242" style="stroke: #383838; stroke-width: 0.5;"/><text fill="#000000" font-family="Tahoma, sans-serif" font-size="12" font-weight="bold" lengthAdjust="spacingAndGlyphs" textLength="21" x="29.3492" y="24.9842">src</text><ellipse cx="122.8492" cy="21.242" fill="#F8F8F8" rx="17.8492" ry="13.242" style="stroke: #383838; stroke-width: 0.5;"/><text fill="#000000" font-family="Tahoma, sans-serif" font-size="12" lengthAdjust="spacingAndGlyphs" textLength="21" x="112.3492" y="24.9842">App</text><ellipse cx="296.8198" cy="203.242" fill="#F8F8F8" rx="34.8198" ry="13.242" style="stroke: #383838; stroke-width: 0.5;"/><text fill="#000000" font-family="Tahoma, sans-serif" font-size="12" lengthAdjust="spacingAndGlyphs" textLength="45" x="274.3198" y="206.9842">Loading</text><ellipse cx="123.1408" cy="202.9282" fill="#F8F8F8" rx="65.1408" ry="15.4282" style="stroke: #383838; stroke-width: 0.5;"/><text fill="#000000" font-family="Tahoma, sans-serif" font-size="12" lengthAdjust="spacingAndGlyphs" textLength="101" x="72.6408" y="206.6704">message/actions</text><ellipse cx="282.0172" cy="441.5034" fill="#F8F8F8" rx="68.0172" ry="16.0034" style="stroke: #383838; stroke-width: 0.5;"/><text fill="#000000" font-family="Tahoma, sans-serif" font-size="12" lengthAdjust="spacingAndGlyphs" textLength="108" x="228.0172" y="445.2456">message/reducers</text><!--entity _message_types--><rect fill="#F8F8F8" height="34.4844" rx="3" ry="3" style="stroke: #000000; stroke-width: 0.5;" width="109" x="320.5" y="247"/><text fill="#000000" font-family="Tahoma, sans-serif" font-size="12" lengthAdjust="spacingAndGlyphs" textLength="89" x="330.5" y="269.0059">message/types</text><!--entity _MessagePopup--><rect fill="#F8F8F8" height="34.4844" rx="3" ry="3" style="stroke: #000000; stroke-width: 0.5;" width="107" x="215.5" y="125"/><text fill="#000000" font-family="Tahoma, sans-serif" font-size="12" lengthAdjust="spacingAndGlyphs" textLength="87" x="225.5" y="147.0059">MessagePopup</text><ellipse cx="122.7999" cy="79.36" fill="#F8F8F8" rx="74.7999" ry="17.36" style="stroke: #383838; stroke-width: 0.5;"/><text fill="#000000" font-family="Tahoma, sans-serif" font-size="12" lengthAdjust="spacingAndGlyphs" textLength="124" x="60.7999" y="83.1022">MessagePopupViewer</text><ellipse cx="474.0172" cy="203.0034" fill="#F8F8F8" rx="68.0172" ry="16.0034" style="stroke: #383838; stroke-width: 0.5;"/><text fill="#000000" font-family="Tahoma, sans-serif" font-size="12" lengthAdjust="spacingAndGlyphs" textLength="108" x="420.0172" y="206.7456">messages/actions</text><ellipse cx="128.9521" cy="441.5904" fill="#F8F8F8" rx="70.9521" ry="16.5904" style="stroke: #383838; stroke-width: 0.5;"/><text fill="#000000" font-family="Tahoma, sans-serif" font-size="12" lengthAdjust="spacingAndGlyphs" textLength="115" x="71.4521" y="445.3326">messages/reducers</text><!--entity _messages_types--><rect fill="#F8F8F8" height="34.4844" rx="3" ry="3" style="stroke: #000000; stroke-width: 0.5;" width="116" x="314" y="486"/><text fill="#000000" font-family="Tahoma, sans-serif" font-size="12" lengthAdjust="spacingAndGlyphs" textLength="96" x="324" y="508.0059">messages/types</text><!--entity _MessageTable--><rect fill="#F8F8F8" height="34.4844" rx="3" ry="3" style="stroke: #000000; stroke-width: 0.5;" width="102" x="337" y="125"/><text fill="#000000" font-family="Tahoma, sans-serif" font-size="12" lengthAdjust="spacingAndGlyphs" textLength="82" x="347" y="147.0059">MessageTable</text><ellipse cx="336.1526" cy="79.4305" fill="#F8F8F8" rx="72.6526" ry="16.9305" style="stroke: #383838; stroke-width: 0.5;"/><text fill="#000000" font-family="Tahoma, sans-serif" font-size="12" lengthAdjust="spacingAndGlyphs" textLength="119" x="276.6526" y="83.1727">MessageTableViewer</text><!--entity _shared_types--><rect fill="#F8F8F8" height="34.4844" rx="3" ry="3" style="stroke: #000000; stroke-width: 0.5;" width="95" x="173.5" y="309"/><text fill="#000000" font-family="Tahoma, sans-serif" font-size="12" lengthAdjust="spacingAndGlyphs" textLength="75" x="183.5" y="331.0059">shared/types</text><ellipse cx="170.2132" cy="384.242" fill="#F8F8F8" rx="24.2132" ry="13.242" style="stroke: #383838; stroke-width: 0.5;"/><text fill="#000000" font-family="Tahoma, sans-serif" font-size="12" lengthAdjust="spacingAndGlyphs" textLength="30" x="155.2132" y="387.9842">store</text><!--link App to MessagePopupViewer--><path d="M123,34.26 C123,40.799 123,49.044 123,56.638 " fill="none" id="App-MessagePopupViewer" style="stroke: #000000; stroke-width: 0.5;"/><polygon fill="#000000" points="123,61.763,127,52.763,123,56.763,119,52.763,123,61.763" style="stroke: #000000; stroke-width: 0.5;"/><!--link App to MessageTableViewer--><path d="M139.714,26.433 C170.561,34.616 237.587,52.395 284.698,64.892 " fill="none" id="App-MessageTableViewer" style="stroke: #000000; stroke-width: 0.5;"/><polygon fill="#000000" points="289.766,66.236,282.0935,60.0608,284.9334,64.9532,280.041,67.7931,289.766,66.236" style="stroke: #000000; stroke-width: 0.5;"/><!--link message/actions to _message_types--><path d="M167.472,214.412 C208.644,224.052 270.168,238.456 315.545,249.08 " fill="none" id="message/actions-_message_types" style="stroke: #000000; stroke-width: 0.5;"/><polygon fill="#000000" points="320.439,250.226,312.588,244.2795,315.5707,249.0861,310.7641,252.0688,320.439,250.226" style="stroke: #000000; stroke-width: 0.5;"/><!--link message/actions to _shared_types--><path d="M134.627,218.355 C151.977,239.778 184.719,280.204 204.527,304.661 " fill="none" id="message/actions-_shared_types" style="stroke: #000000; stroke-width: 0.5;"/><polygon fill="#000000" points="207.829,308.738,205.2712,299.2271,204.6814,304.8531,199.0553,304.2633,207.829,308.738" style="stroke: #000000; stroke-width: 0.5;"/><!--link message/reducers to _message_types--><path d="M290.03,425.347 C306.689,393.909 345.034,321.549 363.986,285.785 " fill="none" id="message/reducers-_message_types" style="stroke: #000000; stroke-width: 0.5;"/><polygon fill="#000000" points="366.417,281.196,358.6685,287.2755,364.0759,285.614,365.7374,291.0214,366.417,281.196" style="stroke: #000000; stroke-width: 0.5;"/><!--link message/reducers to _messages_types--><path d="M303.786,456.9033 C315.658,464.7519 330.498,474.5628 343.302,483.0277 " fill="none" id="message/reducers-_messages_types" style="stroke: #000000; stroke-width: 0.5;"/><polygon fill="#000000" points="347.559,485.842,342.2588,477.5409,343.3886,483.0838,337.8457,484.2136,347.559,485.842" style="stroke: #000000; stroke-width: 0.5;"/><!--link _message_types to _shared_types--><path d="M333.731,281.079 C313.106,289.115 288.087,298.862 266.863,307.131 " fill="none" id="_message_types-_shared_types" style="stroke: #000000; stroke-width: 0.5;"/><polygon fill="#000000" points="262.116,308.981,271.9542,309.4396,266.7747,307.1653,269.049,301.9857,262.116,308.981" style="stroke: #000000; stroke-width: 0.5;"/><!--link _MessagePopup to Loading--><path d="M276.651,159.122 C280.459,167.146 285.063,176.846 288.927,184.989 " fill="none" id="_MessagePopup-Loading" style="stroke: #000000; stroke-width: 0.5;"/><polygon fill="#000000" points="291.224,189.829,290.978,179.9832,289.0798,185.3121,283.751,183.4139,291.224,189.829" style="stroke: #000000; stroke-width: 0.5;"/><!--link _MessagePopup to _message_types--><path d="M259.69,159.008 C251.467,175.48 242.555,201.181 255,219 C268.821,238.788 292.561,249.704 315.296,255.715 " fill="none" id="_MessagePopup-_message_types" style="stroke: #000000; stroke-width: 0.5;"/><polygon fill="#000000" points="320.433,256.996,312.6685,250.9369,315.5816,255.786,310.7325,258.6991,320.433,256.996" style="stroke: #000000; stroke-width: 0.5;"/><!--link MessagePopupViewer to message/actions--><path d="M123,97.139 C123,119.375 123,158.715 123,182.373 " fill="none" id="MessagePopupViewer-message/actions" style="stroke: #000000; stroke-width: 0.5;"/><polygon fill="#000000" points="123,187.457,127,178.457,123,182.457,119,178.457,123,187.457" style="stroke: #000000; stroke-width: 0.5;"/><!--link MessagePopupViewer to _MessagePopup--><path d="M157.971,94.991 C178.205,103.376 203.849,114.002 225.392,122.93 " fill="none" id="MessagePopupViewer-_MessagePopup" style="stroke: #000000; stroke-width: 0.5;"/><polygon fill="#000000" points="230.206,124.924,223.4208,117.7853,225.5863,123.0113,220.3604,125.1768,230.206,124.924" style="stroke: #000000; stroke-width: 0.5;"/><!--link MessagePopupViewer to _shared_types--><path d="M103.8436,96.435 C75.1067,122.355 26.6728,175.162 51,219 C75.813,263.713 128.197,292.03 168.299,308.036 " fill="none" id="MessagePopupViewer-_shared_types" style="stroke: #000000; stroke-width: 0.5;"/><polygon fill="#000000" points="173.126,309.927,166.2064,302.9185,168.4708,308.1024,163.287,310.3668,173.126,309.927" style="stroke: #000000; stroke-width: 0.5;"/><!--link messages/actions to _message_types--><path d="M450.287,218.132 C437.119,225.979 420.574,235.84 406.35,244.317 " fill="none" id="messages/actions-_message_types" style="stroke: #000000; stroke-width: 0.5;"/><polygon fill="#000000" points="402.016,246.899,411.7953,245.7301,406.3118,244.3404,407.7015,238.8569,402.016,246.899" style="stroke: #000000; stroke-width: 0.5;"/><!--link messages/actions to _messages_types--><path d="M475.658,219.259 C478.001,242.185 482,286.894 482,325 C482,325 482,325 482,385 C482,429.1116 439.983,463.3887 407.885,483.1381 " fill="none" id="messages/actions-_messages_types" style="stroke: #000000; stroke-width: 0.5;"/><polygon fill="#000000" points="403.227,485.9459,412.9999,484.7249,407.5091,483.3644,408.8695,477.8736,403.227,485.9459" style="stroke: #000000; stroke-width: 0.5;"/><!--link messages/actions to _shared_types--><path d="M470.809,218.99 C466.238,236.644 456.065,265.52 436,281 C411.16,300.164 329.302,312.88 274.067,319.514 " fill="none" id="messages/actions-_shared_types" style="stroke: #000000; stroke-width: 0.5;"/><polygon fill="#000000" points="268.808,320.137,278.2163,323.0499,273.7732,319.5485,277.2746,315.1055,268.808,320.137" style="stroke: #000000; stroke-width: 0.5;"/><!--link messages/reducers to _messages_types--><path d="M175.853,453.9722 C213.624,463.2206 267.108,476.3165 308.689,486.4979 " fill="none" id="messages/reducers-_messages_types" style="stroke: #000000; stroke-width: 0.5;"/><polygon fill="#000000" points="313.699,487.7246,305.9095,481.6976,308.8427,486.5347,304.0056,489.4678,313.699,487.7246" style="stroke: #000000; stroke-width: 0.5;"/><!--link _messages_types to _message_types--><path d="M373.376,485.7149 C374.009,477.4245 374.687,467.1826 375,458 C377.121,395.697 376.159,322.016 375.475,286.401 " fill="none" id="_messages_types-_message_types" style="stroke: #000000; stroke-width: 0.5;"/><polygon fill="#000000" points="375.368,281.019,371.5462,290.0961,375.4666,286.018,379.5447,289.9384,375.368,281.019" style="stroke: #000000; stroke-width: 0.5;"/><!--link _messages_types to _shared_types--><path d="M372.229,485.9953 C371.742,469.4812 368.895,443.5824 357,425 C333.896,388.906 292.371,361.909 261.263,345.487 " fill="none" id="_messages_types-_shared_types" style="stroke: #000000; stroke-width: 0.5;"/><polygon fill="#000000" points="256.753,343.141,262.8918,350.8427,261.1889,345.4482,266.5833,343.7453,256.753,343.141" style="stroke: #000000; stroke-width: 0.5;"/><!--link _MessageTable to Loading--><path d="M363.134,159.122 C348.856,168.379 331.138,179.867 317.636,188.621 " fill="none" id="_MessageTable-Loading" style="stroke: #000000; stroke-width: 0.5;"/><polygon fill="#000000" points="313.23,191.477,322.9578,189.9376,317.4255,188.7571,318.606,183.2248,313.23,191.477" style="stroke: #000000; stroke-width: 0.5;"/><!--link _MessageTable to _message_types--><path d="M386.247,159.184 C383.94,180.476 379.88,217.956 377.32,241.58 " fill="none" id="_MessageTable-_message_types" style="stroke: #000000; stroke-width: 0.5;"/><polygon fill="#000000" points="376.767,246.689,381.7133,238.1723,377.3057,241.7181,373.7599,237.3104,376.767,246.689" style="stroke: #000000; stroke-width: 0.5;"/><!--link _MessageTable to _shared_types--><path d="M379.2,159.283 C370.172,175.285 355.191,200.002 339,219 C310.464,252.484 271.59,285.457 246.393,305.517 " fill="none" id="_MessageTable-_shared_types" style="stroke: #000000; stroke-width: 0.5;"/><polygon fill="#000000" points="242.163,308.867,251.7024,306.4176,246.0835,305.7638,246.7373,300.1448,242.163,308.867" style="stroke: #000000; stroke-width: 0.5;"/><!--link MessageTableViewer to messages/actions--><path d="M387.452,91.592 C407.947,98.28 430.336,108.767 446,125 C460.949,140.491 468.009,164.578 471.282,181.682 " fill="none" id="MessageTableViewer-messages/actions" style="stroke: #000000; stroke-width: 0.5;"/><polygon fill="#000000" points="472.181,186.749,474.5483,177.1889,471.3081,181.8258,466.6712,178.5856,472.181,186.749" style="stroke: #000000; stroke-width: 0.5;"/><!--link MessageTableViewer to _MessageTable--><path d="M349.662,96.396 C356.076,103.857 363.793,112.836 370.617,120.775 " fill="none" id="MessageTableViewer-_MessageTable" style="stroke: #000000; stroke-width: 0.5;"/><polygon fill="#000000" points="373.885,124.578,371.0503,115.1459,370.6252,120.7868,364.9843,120.3616,373.885,124.578" style="stroke: #000000; stroke-width: 0.5;"/><!--link MessageTableViewer to _shared_types--><path d="M271.217,87.326 C247.343,93.344 222.588,104.484 208,125 C187.954,153.193 206.89,258.245 216.346,303.754 " fill="none" id="MessageTableViewer-_shared_types" style="stroke: #000000; stroke-width: 0.5;"/><polygon fill="#000000" points="217.395,308.743,219.4579,299.1126,216.3664,303.8499,211.6291,300.7584,217.395,308.743" style="stroke: #000000; stroke-width: 0.5;"/><!--link _shared_types to store--><path d="M206.249,343.198 C199.199,350.938 190.808,360.152 183.876,367.764 " fill="none" id="_shared_types-store" style="stroke: #000000; stroke-width: 0.5;"/><polygon fill="#000000" points="180.192,371.808,189.2094,367.8474,183.5587,368.1113,183.2947,362.4606,180.192,371.808" style="stroke: #000000; stroke-width: 0.5;"/><!--link <b>src</b> to App--><path d="M58.1562,21 C71.9925,21 85.8288,21 99.6651,21 " fill="none" id="&lt;b&gt;src&lt;/b&gt;-App" style="stroke: #000000; stroke-width: 1.0;"/><polygon fill="#000000" points="104.7627,21,95.7627,17,99.7627,21,95.7627,25,104.7627,21" style="stroke: #000000; stroke-width: 1.0;"/><!--link <b>src</b> to store--><path d="M34.3856,33.51 C24.7286,54.4 6,100.176 6,141 C6,141 6,141 6,265 C6,331.84 96.8682,364.555 143.327,376.913 " fill="none" id="&lt;b&gt;src&lt;/b&gt;-store" style="stroke: #000000; stroke-width: 1.0;"/><polygon fill="#000000" points="148.222,378.183,140.5149,372.051,143.3822,376.9273,138.5059,379.7946,148.222,378.183" style="stroke: #000000; stroke-width: 1.0;"/><!--link store to message/reducers--><path d="M187.01,393.429 C203.623,401.661 229.323,414.397 249.804,424.5457 " fill="none" id="store-message/reducers" style="stroke: #000000; stroke-width: 0.5;"/><polygon fill="#000000" points="254.355,426.8009,248.0668,419.2208,249.8749,424.5809,244.5148,426.389,254.355,426.8009" style="stroke: #000000; stroke-width: 0.5;"/><!--link store to messages/reducers--><path d="M161.703,396.231 C156.57,403.18 149.832,412.301 143.806,420.4573 " fill="none" id="store-messages/reducers" style="stroke: #000000; stroke-width: 0.5;"/><polygon fill="#000000" points="140.547,424.8693,149.1111,420.0056,143.5172,420.8471,142.6756,415.2532,140.547,424.8693" style="stroke: #000000; stroke-width: 0.5;"/><script type="text/plantuml"><![CDATA[
@startuml

scale max 1920 width
top to bottom direction

skinparam nodesep 14
skinparam ranksep 28
skinparam monochrome true
skinparam shadowing false
skinparam defaultFontName Tahoma
skinparam defaultFontSize 12
skinparam roundCorner 6
skinparam dpi 150
skinparam arrowColor black
skinparam arrowThickness 0.5
skinparam packageTitleAlignment left

skinparam usecase {
  borderThickness 0.5
}

skinparam rectangle {
  borderThickness 0.5
}

skinparam component {
  borderThickness 1
}


(<b>src</b>)
(App)
(Loading)
(message/actions)
(message/reducers)
rectangle "message/types" as _message_types
rectangle "MessagePopup" as _MessagePopup
(MessagePopupViewer)
(messages/actions)
(messages/reducers)
rectangle "messages/types" as _messages_types
rectangle "MessageTable" as _MessageTable
(MessageTableViewer)
rectangle "shared/types" as _shared_types
(store)

(App) --> (MessagePopupViewer)
(App) --> (MessageTableViewer)
(message/actions) --> _message_types
(message/actions) --> _shared_types
(message/reducers) --> _message_types
(message/reducers) --> _messages_types
_message_types --> _shared_types
_MessagePopup --> (Loading)
_MessagePopup ---> _message_types
(MessagePopupViewer) ---> (message/actions)
(MessagePopupViewer) --> _MessagePopup
(MessagePopupViewer) ---> _shared_types
(messages/actions) --> _message_types
(messages/actions) --> _messages_types
(messages/actions) --> _shared_types
(messages/reducers) --> _messages_types
_messages_types --> _message_types
_messages_types --> _shared_types
_MessageTable --> (Loading)
_MessageTable ---> _message_types
_MessageTable ---> _shared_types
(MessageTableViewer) ---> (messages/actions)
(MessageTableViewer) --> _MessageTable
(MessageTableViewer) ---> _shared_types
_shared_types --> (store)
(<b>src</b>) -[thickness=1]> (App)
(<b>src</b>) -[thickness=1]> (store)
(store) --> (message/reducers)
(store) --> (messages/reducers)

@enduml


' View and edit on https://arkit.pro
]]></script></g></svg>
